<mxfile host="Electron" modified="2024-04-16T17:56:11.364Z" agent="Mozilla/5.0 (X11; Linux x86_64) AppleWebKit/537.36 (KHTML, like Gecko) draw.io/22.0.3 Chrome/114.0.5735.289 Electron/25.8.4 Safari/537.36" etag="xnmyqayA8jwBbCKAAgIg" version="22.0.3" type="device">
  <diagram name="第 1 页" id="zQ6ddKFEDqdw8Ij1EzcF">
    <mxGraphModel dx="1405" dy="880" grid="0" gridSize="10" guides="1" tooltips="1" connect="1" arrows="1" fold="1" page="1" pageScale="1" pageWidth="4681" pageHeight="3300" background="none" math="0" shadow="0">
      <root>
        <mxCell id="0" />
        <mxCell id="1" parent="0" />
        <mxCell id="eYe4npBD2eujF9al3DNA-1" value="&lt;b&gt;&lt;font style=&quot;font-size: 22px;&quot;&gt;通讯模式&lt;/font&gt;&lt;/b&gt;" style="text;html=1;strokeColor=none;fillColor=none;align=center;verticalAlign=middle;whiteSpace=wrap;rounded=0;" vertex="1" parent="1">
          <mxGeometry x="943" y="164" width="139" height="19" as="geometry" />
        </mxCell>
        <mxCell id="eYe4npBD2eujF9al3DNA-2" value="" style="endArrow=none;html=1;rounded=0;strokeWidth=2;" edge="1" parent="1">
          <mxGeometry width="50" height="50" relative="1" as="geometry">
            <mxPoint x="1012" y="677" as="sourcePoint" />
            <mxPoint x="1012" y="216" as="targetPoint" />
          </mxGeometry>
        </mxCell>
        <mxCell id="eYe4npBD2eujF9al3DNA-3" value="&lt;span style=&quot;font-size: 22px;&quot;&gt;&lt;b&gt;Timing&lt;/b&gt;&lt;/span&gt;" style="text;html=1;strokeColor=none;fillColor=none;align=center;verticalAlign=middle;whiteSpace=wrap;rounded=0;" vertex="1" parent="1">
          <mxGeometry x="676" y="204" width="139" height="19" as="geometry" />
        </mxCell>
        <mxCell id="eYe4npBD2eujF9al3DNA-4" value="&lt;span style=&quot;font-size: 22px;&quot;&gt;&lt;b&gt;Atomic&lt;/b&gt;&lt;/span&gt;" style="text;html=1;strokeColor=none;fillColor=none;align=center;verticalAlign=middle;whiteSpace=wrap;rounded=0;" vertex="1" parent="1">
          <mxGeometry x="1211" y="204" width="139" height="19" as="geometry" />
        </mxCell>
        <mxCell id="eYe4npBD2eujF9al3DNA-6" value="RequestPort" style="text;html=1;strokeColor=none;fillColor=none;align=center;verticalAlign=middle;whiteSpace=wrap;rounded=0;" vertex="1" parent="1">
          <mxGeometry x="527.5" y="272" width="83" height="30" as="geometry" />
        </mxCell>
        <mxCell id="eYe4npBD2eujF9al3DNA-7" value="ResponsePort" style="text;html=1;strokeColor=none;fillColor=none;align=center;verticalAlign=middle;whiteSpace=wrap;rounded=0;" vertex="1" parent="1">
          <mxGeometry x="833.5" y="272" width="83" height="30" as="geometry" />
        </mxCell>
        <mxCell id="eYe4npBD2eujF9al3DNA-8" value="" style="endArrow=classic;html=1;rounded=0;" edge="1" parent="1">
          <mxGeometry width="50" height="50" relative="1" as="geometry">
            <mxPoint x="412" y="170" as="sourcePoint" />
            <mxPoint x="410" y="717" as="targetPoint" />
          </mxGeometry>
        </mxCell>
        <mxCell id="eYe4npBD2eujF9al3DNA-9" value="gem5&lt;br&gt;模拟时间轴" style="text;html=1;strokeColor=none;fillColor=none;align=center;verticalAlign=middle;whiteSpace=wrap;rounded=0;" vertex="1" parent="1">
          <mxGeometry x="333" y="408" width="62" height="30" as="geometry" />
        </mxCell>
        <mxCell id="eYe4npBD2eujF9al3DNA-10" value="sendTimingReq" style="rounded=1;whiteSpace=wrap;html=1;" vertex="1" parent="1">
          <mxGeometry x="509" y="309" width="120" height="31" as="geometry" />
        </mxCell>
        <mxCell id="eYe4npBD2eujF9al3DNA-11" value="recvTimingReq" style="rounded=1;whiteSpace=wrap;html=1;" vertex="1" parent="1">
          <mxGeometry x="819" y="309" width="120" height="31" as="geometry" />
        </mxCell>
        <mxCell id="eYe4npBD2eujF9al3DNA-12" value="" style="endArrow=classic;html=1;rounded=0;" edge="1" parent="1">
          <mxGeometry width="50" height="50" relative="1" as="geometry">
            <mxPoint x="633" y="316" as="sourcePoint" />
            <mxPoint x="815" y="318" as="targetPoint" />
          </mxGeometry>
        </mxCell>
        <mxCell id="eYe4npBD2eujF9al3DNA-13" value="&lt;span style=&quot;color: rgb(0, 0, 0); font-family: Helvetica; font-size: 12px; font-style: normal; font-variant-ligatures: normal; font-variant-caps: normal; font-weight: 400; letter-spacing: normal; orphans: 2; text-align: center; text-indent: 0px; text-transform: none; widows: 2; word-spacing: 0px; -webkit-text-stroke-width: 0px; background-color: rgb(251, 251, 251); text-decoration-thickness: initial; text-decoration-style: initial; text-decoration-color: initial; float: none; display: inline !important;&quot;&gt;在sendTimingReq中调用ResponsePort::&lt;/span&gt;recvTimingReq" style="text;html=1;strokeColor=none;fillColor=none;align=center;verticalAlign=middle;whiteSpace=wrap;rounded=0;" vertex="1" parent="1">
          <mxGeometry x="633" y="263" width="172" height="62" as="geometry" />
        </mxCell>
        <mxCell id="eYe4npBD2eujF9al3DNA-14" value="立刻返回true or false" style="text;html=1;strokeColor=none;fillColor=none;align=center;verticalAlign=middle;whiteSpace=wrap;rounded=0;" vertex="1" parent="1">
          <mxGeometry x="651" y="343" width="141" height="30" as="geometry" />
        </mxCell>
        <mxCell id="eYe4npBD2eujF9al3DNA-15" value="" style="endArrow=classic;html=1;rounded=0;" edge="1" parent="1">
          <mxGeometry width="50" height="50" relative="1" as="geometry">
            <mxPoint x="809" y="334" as="sourcePoint" />
            <mxPoint x="636" y="331" as="targetPoint" />
          </mxGeometry>
        </mxCell>
        <mxCell id="eYe4npBD2eujF9al3DNA-16" value="some event(具体实现中的某个事件)&lt;br&gt;这个事件是在recvTimingReq函数中被加入到调度队列的" style="rounded=1;whiteSpace=wrap;html=1;" vertex="1" parent="1">
          <mxGeometry x="819" y="551" width="126" height="115" as="geometry" />
        </mxCell>
        <mxCell id="eYe4npBD2eujF9al3DNA-17" value="" style="endArrow=classic;html=1;rounded=0;" edge="1" parent="1">
          <mxGeometry width="50" height="50" relative="1" as="geometry">
            <mxPoint x="879" y="346" as="sourcePoint" />
            <mxPoint x="879" y="544" as="targetPoint" />
          </mxGeometry>
        </mxCell>
        <mxCell id="eYe4npBD2eujF9al3DNA-18" value="返回为true时" style="text;html=1;strokeColor=none;fillColor=none;align=center;verticalAlign=middle;whiteSpace=wrap;rounded=0;" vertex="1" parent="1">
          <mxGeometry x="883" y="419" width="81" height="43" as="geometry" />
        </mxCell>
        <mxCell id="eYe4npBD2eujF9al3DNA-20" value="recvTimingResp" style="rounded=1;whiteSpace=wrap;html=1;" vertex="1" parent="1">
          <mxGeometry x="509" y="593" width="120" height="31" as="geometry" />
        </mxCell>
        <mxCell id="eYe4npBD2eujF9al3DNA-21" value="" style="endArrow=classic;html=1;rounded=0;" edge="1" parent="1">
          <mxGeometry width="50" height="50" relative="1" as="geometry">
            <mxPoint x="810.5" y="611" as="sourcePoint" />
            <mxPoint x="632.5" y="611" as="targetPoint" />
          </mxGeometry>
        </mxCell>
        <mxCell id="eYe4npBD2eujF9al3DNA-22" value="执行这个事件的过程中调用RequestPort::recvTimingResp" style="text;html=1;strokeColor=none;fillColor=none;align=center;verticalAlign=middle;whiteSpace=wrap;rounded=0;" vertex="1" parent="1">
          <mxGeometry x="618" y="572" width="207" height="30" as="geometry" />
        </mxCell>
        <mxCell id="eYe4npBD2eujF9al3DNA-24" value="通信过程到此结束" style="text;html=1;strokeColor=none;fillColor=none;align=center;verticalAlign=middle;whiteSpace=wrap;rounded=0;" vertex="1" parent="1">
          <mxGeometry x="509" y="633" width="102.5" height="30" as="geometry" />
        </mxCell>
        <mxCell id="eYe4npBD2eujF9al3DNA-25" value="" style="shape=curlyBracket;whiteSpace=wrap;html=1;rounded=1;flipH=1;labelPosition=right;verticalLabelPosition=middle;align=left;verticalAlign=middle;strokeWidth=2;" vertex="1" parent="1">
          <mxGeometry x="421" y="343" width="20" height="246" as="geometry" />
        </mxCell>
        <mxCell id="eYe4npBD2eujF9al3DNA-26" value="这个时间跨度的产生是t时刻recvTimingReq调度了一个事件到t+n时刻" style="text;html=1;strokeColor=none;fillColor=none;align=center;verticalAlign=middle;whiteSpace=wrap;rounded=0;" vertex="1" parent="1">
          <mxGeometry x="452" y="451" width="146" height="30" as="geometry" />
        </mxCell>
        <mxCell id="eYe4npBD2eujF9al3DNA-27" value="" style="endArrow=classic;html=1;rounded=0;" edge="1" parent="1">
          <mxGeometry width="50" height="50" relative="1" as="geometry">
            <mxPoint x="1591" y="169" as="sourcePoint" />
            <mxPoint x="1589" y="716" as="targetPoint" />
          </mxGeometry>
        </mxCell>
        <mxCell id="eYe4npBD2eujF9al3DNA-28" value="gem5&lt;br&gt;模拟时间轴" style="text;html=1;strokeColor=none;fillColor=none;align=center;verticalAlign=middle;whiteSpace=wrap;rounded=0;" vertex="1" parent="1">
          <mxGeometry x="1603" y="410" width="62" height="30" as="geometry" />
        </mxCell>
        <mxCell id="eYe4npBD2eujF9al3DNA-29" value="RequestPort" style="text;html=1;strokeColor=none;fillColor=none;align=center;verticalAlign=middle;whiteSpace=wrap;rounded=0;" vertex="1" parent="1">
          <mxGeometry x="1116" y="274" width="83" height="30" as="geometry" />
        </mxCell>
        <mxCell id="eYe4npBD2eujF9al3DNA-30" value="ResponsePort" style="text;html=1;strokeColor=none;fillColor=none;align=center;verticalAlign=middle;whiteSpace=wrap;rounded=0;" vertex="1" parent="1">
          <mxGeometry x="1407" y="272" width="83" height="30" as="geometry" />
        </mxCell>
        <mxCell id="eYe4npBD2eujF9al3DNA-31" value="sendAtomic" style="rounded=1;whiteSpace=wrap;html=1;" vertex="1" parent="1">
          <mxGeometry x="1101" y="405" width="120" height="31" as="geometry" />
        </mxCell>
        <mxCell id="eYe4npBD2eujF9al3DNA-32" value="recvAtomic" style="rounded=1;whiteSpace=wrap;html=1;" vertex="1" parent="1">
          <mxGeometry x="1392" y="407" width="120" height="31" as="geometry" />
        </mxCell>
        <mxCell id="eYe4npBD2eujF9al3DNA-33" value="&lt;span style=&quot;color: rgb(0, 0, 0); font-family: Helvetica; font-size: 12px; font-style: normal; font-variant-ligatures: normal; font-variant-caps: normal; font-weight: 400; letter-spacing: normal; orphans: 2; text-align: center; text-indent: 0px; text-transform: none; widows: 2; word-spacing: 0px; -webkit-text-stroke-width: 0px; background-color: rgb(251, 251, 251); text-decoration-thickness: initial; text-decoration-style: initial; text-decoration-color: initial; float: none; display: inline !important;&quot;&gt;在sendAtomic中调用ResponsePort::&lt;/span&gt;recvAtomic" style="text;html=1;strokeColor=none;fillColor=none;align=center;verticalAlign=middle;whiteSpace=wrap;rounded=0;" vertex="1" parent="1">
          <mxGeometry x="1216.5" y="361" width="172" height="62" as="geometry" />
        </mxCell>
        <mxCell id="eYe4npBD2eujF9al3DNA-34" value="" style="endArrow=classic;html=1;rounded=0;" edge="1" parent="1">
          <mxGeometry width="50" height="50" relative="1" as="geometry">
            <mxPoint x="1230.5" y="417" as="sourcePoint" />
            <mxPoint x="1386.5" y="417" as="targetPoint" />
          </mxGeometry>
        </mxCell>
        <mxCell id="eYe4npBD2eujF9al3DNA-35" value="" style="endArrow=classic;html=1;rounded=0;" edge="1" parent="1">
          <mxGeometry width="50" height="50" relative="1" as="geometry">
            <mxPoint x="1382.5" y="431" as="sourcePoint" />
            <mxPoint x="1232.5" y="431" as="targetPoint" />
          </mxGeometry>
        </mxCell>
        <mxCell id="eYe4npBD2eujF9al3DNA-36" value="同时返回内存数据和延时，延时并不直接作用在gem5的时间轴上，可能被添加到统计数据中或者是用在后续事件调度中" style="text;html=1;strokeColor=none;fillColor=none;align=center;verticalAlign=middle;whiteSpace=wrap;rounded=0;" vertex="1" parent="1">
          <mxGeometry x="1189.5" y="429" width="226" height="91" as="geometry" />
        </mxCell>
        <mxCell id="eYe4npBD2eujF9al3DNA-37" value="&lt;b&gt;不产生时间跨度&lt;/b&gt;" style="text;html=1;strokeColor=none;fillColor=none;align=center;verticalAlign=middle;whiteSpace=wrap;rounded=0;" vertex="1" parent="1">
          <mxGeometry x="1525" y="408" width="60" height="30" as="geometry" />
        </mxCell>
      </root>
    </mxGraphModel>
  </diagram>
</mxfile>
